# xmcd
#
# Track frame offsets:
#	150
#	12133
#	23388
#	36497
#	49290
#	60149
#	73093
#	79947
#	94058
#	107258
#	123683
#	135608
#
# Disc length: 1979 seconds
#
# Revision: 1
# Processed by: cddbd v1.5.2PL0 Copyright (c) Steve Scherf et al.
# Submitted via: audiograbber 1.83.01
#
DISCID=9507b90c
DTITLE=VARIOS - POR SIEMPRE BOLEROS VOL 06
DYEAR=2006
DGENRE=BOLEROS
TTITLE0=LEO MARINI - SEÑORA
TTITLE1=LUCHO BARRIOS - BRUJERIA
TTITLE2=VOCES DEL BOLERO - TRES PALABRAS
TTITLE3=TITO RODRIGUEZ - QUE ES LO QUE PASA
TTITLE4=JULIO JARAMILLO - AMOR DE CABARET
TTITLE5=LUCHO GATICA - LAGRIMAS DEL ALMA
TTITLE6=LOS NOCTURNOS - EL VAGABUNDO 
TTITLE7=TRIO AZUL - LA GLORIA ERES TU 
TTITLE8=ANTONIO MACHIN - MADRECITA
TTITLE9=OLGA GUILLOT - DELIRIO 
TTITLE10=LOS DIAMANTES DEL SOL - DILEMA 
TTITLE11=NELSON PINEDO - SEÑORA BONITA
EXTD=
EXTT0=
EXTT1=
EXTT2=
EXTT3=
EXTT4=
EXTT5=
EXTT6=
EXTT7=
EXTT8=
EXTT9=
EXTT10=
EXTT11=
PLAYORDER=
